# xmcd
#
# Track frame offsets: 
#        150
#        20937
#        42257
#        58647
#        76177
#        100440
#        113910
#        131037
#        154957
#        177565
#        194607
#
# Disc length: 2799 seconds
#
# Revision: 2
# Processed by: cddbd v1.5.1PL2 Copyright (c) Steve Scherf et al.
# Submitted via: ExactAudioCopy v0.90b4
#
DISCID=9f0aed0b
DTITLE=Corey Stevens - Blue Drops of Rain
DYEAR=1997
DGENRE=Blues
TTITLE0=Gone Too Long
TTITLE1=Blue Drops Of Rain
TTITLE2=Crosscut Saw
TTITLE3=I Got A Rich Man's Woman
TTITLE4=It's Over
TTITLE5=Back In Time
TTITLE6=I'll Play The Blues
TTITLE7=Lenny
TTITLE8=The Brothers
TTITLE9=Headshrinker
TTITLE10=Goin' Crazy
EXTD=
EXTT0=
EXTT1=
EXTT2=
EXTT3=
EXTT4=
EXTT5=
EXTT6=
EXTT7=
EXTT8=
EXTT9=
EXTT10=
PLAYORDER=
